<svg xmlns="http://www.w3.org/2000/svg" width="85" height="20" viewBox="0 0 45 45" shape-rendering="geometricPrecision"> <defs> <linearGradient id="gC" x1="8" y1="9" x2="37" y2="36" gradientUnits="userSpaceOnUse"> <stop offset="0" stop-color="#fff"/> <stop offset="0.5" stop-color="#fff"/> <stop offset="1" stop-color="#fff"/> </linearGradient> <filter id="coreShadow" x="-25%" y="-25%" width="150%" height="150%"> <feDropShadow dx="0" dy="1.0" stdDeviation="0.9" flood-color="#000" flood-opacity="0.18"/> <feDropShadow dx="0" dy="2.0" stdDeviation="1.4" flood-color="#000" flood-opacity="0.10"/> </filter> <linearGradient id="topFill" x1="14" y1="14" x2="31" y2="24" gradientUnits="userSpaceOnUse"> <stop offset="0" stop-color="#fff" stop-opacity="0.22"/> <stop offset="0.5" stop-color="#fff" stop-opacity="0.18"/> <stop offset="1" stop-color="#fff" stop-opacity="0.14"/> </linearGradient> <linearGradient id="leftFill" x1="14" y1="19" x2="23" y2="33" gradientUnits="userSpaceOnUse"> <stop offset="0" stop-color="#fff" stop-opacity="0.14"/> <stop offset="0.5" stop-color="#fff" stop-opacity="0.11"/> <stop offset="1" stop-color="#fff" stop-opacity="0.09"/> </linearGradient> <linearGradient id="rightFill" x1="22" y1="19" x2="32" y2="33" gradientUnits="userSpaceOnUse"> <stop offset="0" stop-color="#fff" stop-opacity="0.18"/> <stop offset="0.5" stop-color="#fff" stop-opacity="0.15"/> <stop offset="1" stop-color="#fff" stop-opacity="0.12"/> </linearGradient> </defs> <!-- web (minimal margins) --> <circle cx="22.5" cy="22.5" r="18.5" fill="none" stroke="url(#gC)" stroke-width="1.8" stroke-linecap="round" opacity="0.5"/> <!-- core (slightly bigger again) --> <g filter="url(#coreShadow)" transform="translate(0 -1.3) translate(22.5 22.5) scale(1.28) translate(-22.5 -22.5)"> <!-- faces --> <path d="M22.5 14.6L30.2 19.0L22.5 23.4L14.8 19.0Z" fill="url(#topFill)"/> <path d="M14.8 19.0V28.6L22.5 33.0V23.4L14.8 19.0Z" fill="url(#leftFill)"/> <path d="M30.2 19.0V28.6L22.5 33.0V23.4L30.2 19.0Z" fill="url(#rightFill)"/> <!-- depth outline --> <g fill="none" stroke="#fff" stroke-opacity="0.16" stroke-width="3.8" stroke-linecap="round" stroke-linejoin="round"> <path d="M22.5 14.6L30.2 19.0L22.5 23.4L14.8 19.0Z"/> <path d="M14.8 19.0V28.6L22.5 33.0L30.2 28.6V19.0"/> <path d="M22.5 23.4V33.0"/> </g> <!-- main outline --> <g fill="none" stroke="url(#gC)" stroke-width="2.8" stroke-linecap="round" stroke-linejoin="round"> <path d="M22.5 14.6L30.2 19.0L22.5 23.4L14.8 19.0Z"/> <path d="M14.8 19.0V28.6L22.5 33.0L30.2 28.6V19.0"/> <path d="M22.5 23.4V33.0"/> </g> </g> </svg>
